<svg width="331" height="54" viewBox="0 0 331 54" fill="none" xmlns="http://www.w3.org/2000/svg">
<rect width="331" height="54" fill="#F5F5F5"/>
<rect width="802" height="600" transform="translate(-456 -157)" fill="white"/>
<path d="M63.6428 38.837L62.2808 37.2506C61.8281 36.6837 61.033 36.3452 60.352 36.3452C60.0134 36.3452 59.8993 36.4593 59.5569 36.4593C59.2183 36.5734 58.99 36.6876 58.6515 36.912C56.0417 38.8408 53.2074 40.5414 50.259 41.7892C44.7008 44.2849 38.6937 45.6431 32.5686 45.6431C25.424 45.6431 18.2794 43.8284 12.044 40.4273C9.8907 39.2936 7.84774 37.8175 5.8086 36.3452C5.47001 36.1169 5.24174 36.0066 4.90315 35.8924H4.67489C4.44663 35.7783 4.3363 35.7783 4.10804 35.7783H3.9939C3.19879 35.7783 2.52161 36.1169 2.06508 36.6837L0.703114 38.156C0.250392 38.7229 -0.0920024 39.4039 0.022129 40.199C0.13626 40.9941 0.360719 41.561 1.0417 42.0137C9.65863 48.9301 20.4326 52.7877 31.5452 53.0122H34.4936C44.8111 52.6736 54.9041 48.9301 63.1825 42.6947C63.7493 42.2419 64.202 41.561 64.3162 40.7658C64.4303 40.0849 64.0879 39.4039 63.6352 38.837H63.6428Z" fill="#F6BB17"/>
<path d="M57.5177 17.97L53.4356 14.9075L53.3215 14.7933V3.45628C53.3215 1.64159 51.8492 0.0551635 49.9204 0.0551635H46.6334C44.8187 0.0551635 43.2323 1.52746 43.2323 3.45628V6.97153C43.2323 7.08566 43.004 7.19979 42.8937 7.08566L34.7295 0.850279C33.3675 -0.283426 31.2142 -0.283426 29.6278 0.850279L6.6075 17.7455C5.47379 18.651 4.79281 19.8988 4.79281 21.3749V33.8495H5.02107C5.81619 33.9636 6.49337 34.1881 7.06403 34.7549C8.87872 36.2272 11.032 37.5892 13.0749 38.7229C13.1891 38.7229 13.3032 38.7229 13.3032 38.6088C13.6418 38.0419 13.6418 37.3609 13.6418 36.7941V27.9489C13.6418 25.9059 14.6614 23.9809 16.2516 22.7331L28.4979 13.5493C29.6316 12.6439 30.9936 12.3015 32.3517 12.3015H32.58C33.8278 12.3015 35.1898 12.7542 36.2094 13.5493L47.6644 21.8276C49.3649 23.0755 50.2742 25.1146 50.2742 27.1576L50.1601 39.7463C50.2742 39.7463 50.2742 39.6321 50.3883 39.6321C52.884 38.4984 55.2655 37.0223 57.4188 35.4359C57.9857 34.9832 58.6666 34.7549 59.3476 34.5305C59.4618 34.5305 59.4618 34.4163 59.4618 34.3022V21.489C59.2335 20.1271 58.5563 18.7689 57.5329 17.9738L57.5177 17.97Z" fill="#051D49"/>
<path d="M174.899 30.0521L174.107 29.2607C173.708 28.8616 172.917 28.4692 172.325 28.4692C172.125 28.4692 171.926 28.4692 171.533 28.6688C171.141 28.8683 171.134 28.8683 170.941 29.0678C169.751 30.0588 168.168 30.8503 166.778 31.4488C160.632 34.2223 153.496 33.8299 147.743 30.8569C146.552 30.265 145.761 29.6664 144.77 28.8749C144.57 28.6754 144.371 28.4759 144.178 28.4759H143.978C143.387 28.2763 142.196 28.4759 141.597 29.0678L141.005 29.8593C140.606 30.2583 140.414 31.0498 140.414 31.6417C140.414 32.2337 140.813 32.8322 141.205 33.2246C145.768 36.9891 151.514 38.9711 157.659 39.1706H159.242C164.796 38.9711 170.343 36.9891 174.706 33.6171C175.105 33.218 175.497 32.6261 175.697 32.0341C175.497 31.2427 175.298 30.6441 174.905 30.0521H174.899Z" fill="#F6BB17"/>
<path d="M122.363 43.1412C118.991 43.1412 116.018 41.1592 114.435 38.5787L136.443 30.4512C136.243 29.4602 135.452 27.6778 135.452 27.6778C133.071 22.5233 127.916 19.3508 122.37 19.3508C114.442 19.3508 107.897 25.8953 107.897 33.8232C107.897 41.7512 114.442 48.2957 122.37 48.2957C127.724 48.2957 132.479 45.3227 135.06 40.7602L130.497 38.1862C128.715 41.1592 125.742 43.1412 122.37 43.1412H122.363ZM122.363 24.5053C124.937 24.5053 127.517 25.6958 129.1 27.4782L113.045 33.4242C113.244 28.2697 117.408 24.5053 122.363 24.5053Z" fill="#051D49"/>
<path d="M195.118 7.45224V2.09823C189.371 2.09823 183.226 6.06219 183.226 12.6067V20.5346H178.071V25.6891H183.026V48.289H188.181V25.8887H193.734V20.7342H188.181V12.8062C188.38 8.64276 192.936 7.45224 195.118 7.45224Z" fill="#051D49"/>
<path d="M222.672 19.3508V22.7228C220.098 20.7408 216.926 19.3508 213.354 19.3508C205.427 19.3508 198.882 25.8953 198.882 33.8232C198.882 41.7512 205.427 48.2957 213.354 48.2957C216.926 48.2957 220.092 47.1052 222.672 44.9237V47.6971H227.827V19.3508H222.672ZM213.354 42.9417C208.2 42.9417 204.036 38.7782 204.036 33.6237C204.036 28.4692 208.2 24.3057 213.354 24.3057C218.509 24.3057 222.672 28.4692 222.672 33.6237C222.672 38.7782 218.509 42.9417 213.354 42.9417Z" fill="#051D49"/>
<path d="M247.653 42.9417C242.499 42.9417 238.335 38.7782 238.335 33.6237C238.335 28.4692 242.499 24.3057 247.653 24.3057C251.025 24.3057 253.799 26.0882 255.382 28.8683L259.745 25.8953C257.171 21.9313 252.808 19.1579 247.653 19.1579C239.725 19.1579 233.181 25.7024 233.181 33.6304C233.181 41.5583 239.725 48.1028 247.653 48.1028C252.608 48.1028 257.171 45.5289 259.545 41.5583L255.182 38.5853C253.599 41.3587 250.819 42.9483 247.647 42.9483L247.653 42.9417Z" fill="#051D49"/>
<path d="M265.099 20.5413V48.0962H270.253V20.5413H265.099ZM267.673 5.47691C265.491 5.47691 263.709 7.25936 263.709 9.44087C263.709 11.6224 265.491 13.2053 267.673 13.2053C269.655 13.2053 271.637 11.4228 271.637 9.44087C271.637 7.25936 269.854 5.47691 267.673 5.47691Z" fill="#051D49"/>
<path d="M277.789 2.09823V48.0962H283.143V2.09823H277.789Z" fill="#051D49"/>
<path d="M290.672 20.5413V48.0962H295.826V20.5413H290.672ZM293.246 5.47691C291.064 5.47691 289.282 7.25936 289.282 9.44087C289.282 11.6224 291.064 13.2053 293.246 13.2053C295.228 13.2053 297.21 11.4228 297.21 9.44087C297.21 7.25936 295.427 5.47691 293.246 5.47691Z" fill="#051D49"/>
<path d="M311.888 38.3791V25.2967H316.644V20.1422H311.888V11.4162H306.734V20.1422H302.171V25.2967H306.734V38.3791C306.734 44.5246 311.097 48.0962 317.834 48.0962V42.9417C311.888 42.9417 311.888 39.5696 311.888 38.3791Z" fill="#051D49"/>
<path d="M324.372 20.5413V48.0962H329.526V20.5413H324.372ZM326.753 5.47691C324.572 5.47691 322.789 7.25936 322.789 9.44087C322.789 11.6224 324.572 13.2053 326.753 13.2053C328.735 13.2053 330.717 11.4228 330.717 9.44087C330.917 7.25936 328.935 5.47691 326.753 5.47691Z" fill="#051D49"/>
<rect width="330.731" height="53.0121" fill="black" style="mix-blend-mode:saturation"/>
</svg>
