<svg width="318" height="93" viewBox="0 0 318 93" fill="none" xmlns="http://www.w3.org/2000/svg">
<g clip-path="url(#clip0_30_100)">
<mask id="mask0_30_100" style="mask-type:luminance" maskUnits="userSpaceOnUse" x="0" y="0" width="318" height="93">
<path d="M318 0H0V93H318V0Z" fill="white"/>
</mask>
<g mask="url(#mask0_30_100)">
<path d="M104.683 90.3991V55.2325H120.7C127.545 55.2325 132.059 58.9387 132.059 64.9265C132.143 66.316 131.858 67.703 131.233 68.9466C130.607 70.1902 129.663 71.2461 128.497 72.0069C130.09 72.7387 131.434 73.9207 132.363 75.4072C133.292 76.8936 133.766 78.6195 133.725 80.3718C133.725 86.8824 129.067 90.3991 121.939 90.3991H104.683ZM111.806 69.5408H120.409C122.833 69.5408 124.687 68.3529 124.687 65.5484C124.687 62.744 122.833 61.6515 120.409 61.6515H111.806V69.5408ZM111.806 83.9877H121.692C124.402 83.9877 126.35 82.7515 126.35 79.7105C126.35 76.8119 124.402 75.4816 121.692 75.4816H111.806V83.9877Z" fill="#161615"/>
<path d="M161.674 79.9915C162.251 81.2499 163.139 82.3415 164.252 83.1644C165.366 83.9873 166.67 84.5147 168.043 84.6974V90.6852C162.101 90.5428 159.155 88.8779 156.065 83.6519L153.832 79.8974H146.422V90.3991H139.299V55.2325H154.509C162.113 55.2325 167.817 59.5097 167.817 67.5885C167.796 69.8534 167.096 72.0599 165.808 73.9234C164.52 75.7868 162.704 77.2217 160.593 78.0431L161.674 79.9915ZM146.422 61.6477V73.7188H154.217C157.83 73.7188 160.348 71.6737 160.348 67.5885C160.404 66.7899 160.287 65.9887 160.005 65.2394C159.723 64.4902 159.283 63.8105 158.715 63.2467C158.146 62.6828 157.463 62.2482 156.712 61.9722C155.96 61.6963 155.158 61.5856 154.36 61.6477H146.422Z" fill="#161615"/>
<path d="M180.733 55.2312H173.604V90.3978H180.733V55.2312Z" fill="#161615"/>
<path d="M188.15 55.2325H201.031C212.2 55.2325 218.996 62.4083 218.996 72.8145C218.996 83.2208 212.2 90.3978 201.031 90.3978H188.15V55.2325ZM201.031 83.9839C207.922 83.9839 211.535 79.802 211.535 72.8158C211.535 65.7825 207.922 61.649 201.031 61.649H195.274V83.9851L201.031 83.9839Z" fill="#161615"/>
<path d="M240.431 75.9522V70.2021H256.585V72.335C256.585 83.741 250.406 90.9638 239.855 90.9638C228.447 90.9638 221.842 83.6456 221.842 72.8107C221.842 61.9758 228.12 54.6564 240.145 54.6564C244.597 54.6016 248.942 56.0219 252.502 58.6957L249.365 64.1647C246.738 62.1501 243.502 61.0937 240.192 61.1708C233.111 61.1708 229.309 65.9707 229.309 72.8132C229.309 79.6558 232.87 84.457 239.86 84.457C241.043 84.5342 242.229 84.3739 243.349 83.9856C244.469 83.5973 245.501 82.9889 246.382 82.1962C247.263 81.4034 247.977 80.4424 248.481 79.3696C248.986 78.2968 249.27 77.134 249.318 75.9496L240.431 75.9522Z" fill="#161615"/>
<path d="M261.725 55.2312H286.529V61.7418H268.849V69.3017H285.294V75.6609H268.854V83.8821H287.2V90.3927H261.725V55.2312Z" fill="#161615"/>
<path d="M290.819 86.8341L294.051 81.2265C297.019 83.5633 300.734 84.7454 304.507 84.5537C308.594 84.5537 310.78 82.9842 310.78 80.6109C310.78 77.8548 306.93 76.714 303.793 75.858C297.942 74.2415 291.531 72.1506 291.531 64.9278C291.531 58.6538 296.283 54.6627 304.505 54.6627C308.767 54.5375 312.974 55.6413 316.625 57.8423L313.773 63.4028C310.94 61.8306 307.745 61.0277 304.505 61.0741C300.988 61.0741 298.753 62.4528 298.753 64.5907C298.753 67.109 302.128 68.1074 305.456 69.0575C311.54 70.7694 318.004 72.9074 318.004 80.1302C318.004 86.5937 313.297 90.965 304.505 90.965C299.607 91.1773 294.781 89.7209 290.819 86.8341Z" fill="#161615"/>
<path d="M101.653 26.0283C101.653 15.2405 108.355 7.87527 119.666 7.87527C130.977 7.87527 137.679 15.2405 137.679 26.0283C137.679 36.7678 130.977 44.1814 119.666 44.1814C108.355 44.1814 101.653 36.7704 101.653 26.0283ZM130.218 26.0283C130.218 18.995 126.606 14.3859 119.661 14.3859C112.716 14.3859 109.103 18.995 109.103 26.0283C109.103 33.0617 112.716 37.6721 119.661 37.6721C126.606 37.6721 130.218 33.0617 130.218 26.0283Z" fill="#0090DF"/>
<path d="M140.533 26.0283C140.533 15.1935 147.187 7.87527 158.403 7.87527C162.699 7.83244 166.89 9.20158 170.332 11.7722L167.195 17.2844C164.722 15.3691 161.674 14.3474 158.546 14.3859C152.035 14.3859 147.988 18.948 147.988 26.0283C147.988 33.0146 151.931 37.6721 158.546 37.6721C160.271 37.647 161.974 37.2724 163.551 36.5709C165.128 35.8694 166.546 34.8556 167.72 33.5907L171.663 39.0088C169.834 40.7444 167.677 42.0969 165.317 42.9865C162.958 43.8761 160.445 44.285 157.925 44.189C147.041 44.189 140.531 36.8238 140.531 26.036" fill="#0090DF"/>
<path d="M176.608 8.44507H201.412V14.9557H183.732V22.5117H200.177V28.8798H183.738V37.1011H202.084V43.6116H176.608V8.44507Z" fill="#0090DF"/>
<path d="M207.266 23.7479C207.266 13.7677 212.921 7.87527 222.618 7.87527C232.218 7.87527 237.874 13.7677 237.874 23.7479V43.6116H230.751V34.1554H214.396V43.6129H207.272L207.266 23.7479ZM230.745 27.6449V23.7479C230.745 17.8542 227.846 14.3859 222.618 14.3859C217.295 14.3859 214.396 17.8555 214.396 23.7479V27.6449H230.745Z" fill="#0090DF"/>
<path d="M275.454 23.9463V43.6205H268.331V23.9463C268.331 17.816 265.533 14.3935 260.345 14.3935C255.158 14.3935 252.408 17.816 252.408 23.9463V43.6205H245.285V23.9463C245.285 13.8237 250.798 7.88419 260.35 7.88419C269.951 7.88419 275.464 13.8237 275.464 23.9463" fill="#0090DF"/>
<path d="M66.2941 46.3079L66.3081 46.3207L66.4009 46.2355C71.5309 41.5296 78.5575 35.0979 78.5575 25.5285C78.548 18.7608 75.8551 12.273 71.069 7.48753C66.283 2.70205 59.7944 0.00942108 53.0259 0L0 0V9.11914H53.0259C57.3759 9.1252 61.546 10.8557 64.622 13.9313C67.6979 17.0068 69.4286 21.1765 69.4347 25.526C69.4347 31.0814 64.7575 35.3662 60.2368 39.5087L59.8934 39.8241C60.9644 40.9433 62.0431 42.0562 63.1154 43.1309L66.2941 46.3079Z" fill="#0090DF"/>
<path d="M67.2354 47.2288L66.3068 46.3219L66.2674 46.3588L63.1548 49.5474C62.0804 50.6496 61.0043 51.7472 59.9265 52.8402C60.2368 53.1446 60.5506 53.4515 60.8677 53.761C65.0806 57.8703 69.4372 62.1183 69.4372 67.474C69.4312 71.8235 67.7004 75.9932 64.6245 79.0687C61.5486 82.1443 57.3784 83.8748 53.0284 83.8809H0V93H53.0246C59.7935 92.9909 66.2826 90.2983 71.069 85.5125C75.8554 80.7267 78.5484 74.2383 78.5575 67.4702C78.5575 58.2709 72.2789 52.1483 67.2354 47.2288Z" fill="#0090DF"/>
<path d="M66.3001 46.3193L66.2623 46.357L66.3026 46.3205L66.2888 46.308L66.3001 46.3193Z" fill="#0090DF"/>
<path d="M66.2941 46.3092L63.1141 43.1296C62.0418 42.0574 60.9644 40.9446 59.8934 39.8228C59.0297 38.9198 58.1698 38.0142 57.324 37.1214C53.5805 33.1698 49.7085 29.0833 45.502 25.4408C40.3463 20.7885 33.6136 18.2717 26.67 18.4011C20.6709 18.7356 14.9363 20.9815 10.3059 24.8101C5.67555 28.6387 2.39252 33.8489 0.937474 39.6778C-0.327875 45.4844 0.342236 51.5455 2.84547 56.9355C5.25487 62.1437 9.18995 66.497 14.1294 69.4187C19.7549 72.7154 26.3617 73.9262 32.7909 72.8387C41.7649 71.3125 47.4075 65.5815 52.8656 60.0337L53.0907 59.8048C55.3736 57.4849 57.6521 55.1609 59.9265 52.8325C61.0017 51.7303 62.0778 50.6327 63.1548 49.5397L66.2674 46.3601L66.3056 46.3219L66.2941 46.3092ZM46.5896 53.4125L46.3644 53.6414C41.5181 58.5673 37.3332 62.8216 31.267 63.8505C26.9534 64.5573 22.5281 63.7464 18.7455 61.5561C15.4125 59.5804 12.7586 56.6389 11.1351 53.1212C9.46662 49.5526 9.01228 45.5359 9.84147 41.6848C11.5358 34.172 19.2428 27.8217 27.0224 27.5215C27.2246 27.5139 27.4243 27.5101 27.624 27.5101C32.0461 27.6397 36.2742 29.3551 39.5363 32.3431C43.4019 35.6893 47.1149 39.6104 50.707 43.4005C51.6305 44.376 52.5692 45.3668 53.5181 46.3563C51.2124 48.7117 48.9033 51.0647 46.5908 53.415" fill="#161615"/>
</g>
</g>
<defs>
<clipPath id="clip0_30_100">
<rect width="318" height="93" fill="white"/>
</clipPath>
</defs>
</svg>
