<svg width="336" height="128" viewBox="0 0 336 128" fill="none" xmlns="http://www.w3.org/2000/svg">
<rect width="336" height="128" fill="#F5F5F5"/>
<rect width="802" height="600" transform="translate(-458 -249)" fill="white"/>
<rect width="336" height="127.881" rx="15" fill="#352C69"/>
<g clip-path="url(#clip0_0_1)">
<path d="M197.797 123.701H138.036C121.403 123.701 107.904 110.203 107.904 93.5702V33.8925C107.904 17.2597 121.403 3.76119 138.036 3.76119H197.797C214.43 3.76119 227.928 17.2597 227.928 33.8925V93.5284C227.97 110.203 214.472 123.701 197.797 123.701Z" fill="#352C69"/>
<path d="M197.588 123.994H137.827C121.194 123.994 107.696 110.496 107.696 93.8627V34.2269C107.696 17.594 121.194 4.09552 137.827 4.09552H197.588C214.221 4.09552 227.719 17.594 227.719 34.2269V93.8627C227.719 110.496 214.221 123.994 197.588 123.994Z" fill="#352C69"/>
<mask id="mask0_0_1" style="mask-type:luminance" maskUnits="userSpaceOnUse" x="107" y="4" width="121" height="120">
<mask id="mask1_0_1" style="mask-type:luminance" maskUnits="userSpaceOnUse" x="107" y="3" width="121" height="121">
<path d="M197.797 123.701H138.036C121.403 123.701 107.904 110.203 107.904 93.5702V33.8925C107.904 17.2597 121.403 3.76119 138.036 3.76119H197.797C214.43 3.76119 227.928 17.2597 227.928 33.8925V93.5284C227.97 110.203 214.472 123.701 197.797 123.701Z" fill="white"/>
</mask>
<g mask="url(#mask1_0_1)">
<path d="M197.588 123.994H137.827C121.194 123.994 107.696 110.496 107.696 93.8627V34.2269C107.696 17.594 121.194 4.09552 137.827 4.09552H197.588C214.221 4.09552 227.719 17.594 227.719 34.2269V93.8627C227.719 110.496 214.221 123.994 197.588 123.994Z" fill="white"/>
</g>
</mask>
<g mask="url(#mask0_0_1)">
<path d="M197.797 123.701H138.036C121.403 123.701 107.904 110.203 107.904 93.5702V33.8925C107.904 17.2597 121.403 3.76119 138.036 3.76119H197.797C214.43 3.76119 227.928 17.2597 227.928 33.8925V93.5284C227.97 110.203 214.472 123.701 197.797 123.701Z" fill="#352C69"/>
<path d="M197.588 123.994H137.827C121.194 123.994 107.696 110.496 107.696 93.8627V34.2269C107.696 17.594 121.194 4.09552 137.827 4.09552H197.588C214.221 4.09552 227.719 17.594 227.719 34.2269V93.8627C227.719 110.496 214.221 123.994 197.588 123.994Z" fill="#352C69"/>
</g>
<path d="M118.812 42.1254C118.812 38.6567 121.278 36.1493 124.746 36.1493H143.469C146.937 36.1493 149.445 38.6567 149.445 42.1254V48.603C149.445 52.0716 146.937 54.5373 143.469 54.5373H123.158V61.391H118.812V42.1254ZM143.469 50.191C144.555 50.191 145.099 49.6896 145.099 48.603V42.1254C145.099 41.0388 144.555 40.4955 143.469 40.4955H124.746C123.66 40.4955 123.158 41.0388 123.158 42.1254V50.191H143.469Z" fill="white"/>
<path d="M153.039 55.4149V42.1254C153.039 38.6567 155.504 36.191 158.973 36.191H178.949C182.418 36.191 184.884 38.6567 184.884 42.1254V55.4567C184.884 58.9254 182.418 61.391 178.949 61.391H158.973C155.546 61.391 153.039 58.8836 153.039 55.4149ZM178.949 57.0448C180.036 57.0448 180.579 56.5015 180.579 55.4149V42.1254C180.579 41.0388 180.036 40.4955 178.949 40.4955H158.973C157.887 40.4955 157.343 41.0388 157.343 42.1254V55.4567C157.343 56.5433 157.887 57.0866 158.973 57.0866H178.949V57.0448Z" fill="white"/>
<path d="M188.519 57.003H209.457C211.337 57.003 212.466 55.9582 212.466 53.9522C212.466 52.0298 211.337 50.9433 209.457 50.9433H195.875C191.57 50.9433 188.519 47.9343 188.519 43.5045C188.519 39.2 191.57 36.1075 195.875 36.1075H216.812V40.4537H195.875C193.952 40.4537 192.866 41.5821 192.866 43.4627C192.866 45.4687 193.994 46.5134 195.875 46.5134H209.457C213.761 46.5134 216.854 49.606 216.854 53.9104C216.854 58.2985 213.803 61.3493 209.457 61.3493H188.519V57.003Z" fill="white"/>
<path d="M118.31 72.3821C118.31 68.9134 120.776 66.406 124.245 66.406H142.967C146.436 66.406 148.943 68.9134 148.943 72.3821V78.8597C148.943 82.3284 146.436 84.794 142.967 84.794H122.657V91.6478H118.31V72.3821ZM142.967 80.4478C144.054 80.4478 144.597 79.9463 144.597 78.8597V72.3821C144.597 71.2955 144.054 70.7522 142.967 70.7522H124.245C123.158 70.7522 122.657 71.2955 122.657 72.3821V80.4478H142.967Z" fill="#5FCDF2"/>
<path d="M152.537 72.3821C152.537 68.9134 155.003 66.406 158.472 66.406H177.194C180.663 66.406 183.17 68.9134 183.17 72.3821V78.8597C183.17 82.3284 180.663 84.794 177.194 84.794H156.884V91.6478H152.537V72.3821ZM177.236 80.4478C178.322 80.4478 178.866 79.9463 178.866 78.8597V72.3821C178.866 71.2955 178.322 70.7522 177.236 70.7522H158.513C157.427 70.7522 156.925 71.2955 156.925 72.3821V80.4478H177.236Z" fill="#5FCDF2"/>
<path d="M183.337 91.5224H177.654L168.752 81.0746V80.991L175.606 81.0746H174.436L183.337 91.5224Z" fill="#5FCDF2"/>
<path d="M185.469 85.7134V72.3821C185.469 68.9134 187.934 66.4478 191.403 66.4478H211.379C214.848 66.4478 217.313 68.9134 217.313 72.3821V85.7134C217.313 89.1821 214.848 91.6478 211.379 91.6478H191.403C187.976 91.6478 185.469 89.1403 185.469 85.7134ZM211.379 87.3015C212.466 87.3015 213.009 86.7582 213.009 85.6716V72.3403C213.009 71.2537 212.466 70.7104 211.379 70.7104H191.403C190.316 70.7104 189.773 71.2537 189.773 72.3403V85.6716C189.773 86.7582 190.316 87.3015 191.403 87.3015H211.379Z" fill="#5FCDF2"/>
</g>
<rect width="336" height="127.881" fill="black" style="mix-blend-mode:saturation"/>
<defs>
<clipPath id="clip0_0_1">
<rect x="107.821" y="3.76119" width="120.066" height="120.233" rx="15" fill="white"/>
</clipPath>
</defs>
</svg>
