<svg width="323" height="94" viewBox="0 0 323 94" fill="none" xmlns="http://www.w3.org/2000/svg">
<path d="M108.011 52.7476C111.472 56.9378 119.111 57.1395 119.358 53.4198C119.448 51.4703 116.28 50.3499 113.449 49.969C107.876 49.0951 102.798 45.5771 102.798 38.9893C102.798 32.4014 108.955 28.6594 115.314 28.6594C119.516 28.6594 123.583 29.8246 127.155 34.1716L121.426 38.5635C117.808 34.7094 111.606 34.8663 111.449 38.8548C111.539 40.513 113.359 41.4765 116.055 42.0815C122.212 43.2019 128.369 45.353 127.987 53.8231C127.695 60.5006 120.662 64.153 114.303 64.153C110.146 64.153 105.742 62.0467 102.529 57.9013L108.056 52.7252L108.011 52.7476Z" fill="#182B54" stroke="white" stroke-width="0.5" stroke-miterlimit="10"/>
<path d="M140.525 63.6825H131.717V29.1523H140.525V42.216H150.501V29.1523H159.309V63.6825H150.501V50.6637H140.525V63.6825Z" fill="#182B54" stroke="white" stroke-width="0.5" stroke-miterlimit="10"/>
<path d="M167.016 40.513C167.016 32.5583 174.162 28.6594 181.352 28.6594C188.542 28.6594 195.732 32.6031 195.732 40.513V52.3218C195.732 60.2093 188.587 64.1755 181.397 64.1755C174.207 64.1755 167.016 60.2317 167.016 52.3218V40.513ZM175.757 52.3218C175.757 54.8539 178.588 56.0863 181.374 56.0863C184.161 56.0863 186.947 54.8091 186.947 52.3218V40.513C186.947 37.8241 184.071 36.6141 181.217 36.6141C178.363 36.6141 175.734 37.9809 175.734 40.513V52.3218H175.757Z" fill="#182B54" stroke="white" stroke-width="0.5" stroke-miterlimit="10"/>
<path d="M200.361 29.1523H214.202C222.651 29.1523 226.875 35.2472 226.875 41.3421C226.875 47.437 222.628 53.5766 214.27 53.5766H209.147V63.6601H200.406V29.1523H200.361ZM214.202 45.8236C219.483 45.8684 219.483 37.2415 214.202 37.2863H209.124V45.8236H214.202Z" fill="#182B54" stroke="white" stroke-width="0.5" stroke-miterlimit="10"/>
<path d="M233.301 29.1523H247.143C255.591 29.1523 259.816 35.2472 259.816 41.3421C259.816 47.437 255.569 53.5766 247.21 53.5766H242.087V63.6601H233.346V29.1523H233.301ZM247.143 45.8236C252.423 45.8684 252.423 37.2415 247.143 37.2863H242.065V45.8236H247.143Z" fill="#F36B24" stroke="white" stroke-width="0.5" stroke-miterlimit="10"/>
<path d="M272.354 42.7089H286.375V50.2603H272.354V55.4365H287.61V63.6825H263.501V29.1523H287.61V37.3535H272.354V42.7089Z" fill="#F36B24" stroke="white" stroke-width="0.5" stroke-miterlimit="10"/>
<path d="M301.137 63.6825V50.0811L289.071 29.1747H299.25L305.519 41.8575L311.788 29.1747H322.056L309.923 50.0811V63.6825H301.182H301.137Z" fill="#F36B24" stroke="white" stroke-width="0.5" stroke-miterlimit="10"/>
<path d="M93.6981 46.9888C93.6981 52.8148 92.6195 58.3719 90.6647 63.5032C87.9009 70.7409 83.3846 77.1047 77.6323 82.0791C72.2846 86.7175 65.8358 90.1459 58.7579 91.9609C55.028 92.9244 51.1407 93.4174 47.1187 93.4174C35.794 93.4174 25.4131 89.384 17.3465 82.6842C14.0659 79.9728 11.1898 76.8358 8.76313 73.3402C8.69572 73.2505 8.65078 73.1833 8.60584 73.0937C7.59471 71.6372 6.67346 70.1135 5.86455 68.5225C2.47165 62.1139 0.561737 54.7642 0.561737 46.9888C0.561737 21.3545 21.4135 0.560196 47.1187 0.560196C72.8239 0.560196 93.6756 21.3545 93.6756 46.9888H93.6981Z" fill="#182B54" stroke="white" stroke-width="0.5" stroke-miterlimit="10"/>
<path d="M59.3197 59.6715V91.9609C55.5223 92.9244 51.5677 93.4622 47.4782 93.4622C35.9513 93.4622 25.3906 89.3616 17.1668 82.5273C13.8413 79.7712 10.8977 76.5669 8.4261 73.0041C8.35869 72.9144 8.31375 72.8472 8.26881 72.7576C7.25768 71.2563 6.31396 69.7101 5.46011 68.1192V47.9075L27.8398 52.8148L36.176 54.6298L59.3197 59.6939V59.6715Z" fill="white"/>
<path d="M91.8107 46.9216V60.4558C89.002 67.8279 84.3957 76.8358 78.5312 81.8999C73.071 86.6055 66.5324 90.1235 59.3197 91.9609V59.6715L91.8107 46.8992V46.9216Z" fill="white"/>
<path d="M5.46011 47.8851L38.378 37.9361L91.8107 46.9216L59.3197 59.6715L5.46011 47.8851Z" fill="white"/>
<path d="M36.4456 54.4954L58.6231 45.5099L49.2758 43.7397L27.8623 52.6355L36.4456 54.4954Z" fill="#F36B24"/>
<path d="M27.8623 52.5683L27.9746 68.8586L27.9971 68.8811L28.6262 69.979L29.7497 69.5757L30.4912 70.3824L31.2552 70.0014L31.9742 70.6737L32.9629 70.2927L33.637 70.965L34.6031 70.6064L35.2997 71.1666L36.1985 70.472V54.3833L27.8623 52.5683Z" fill="#F36B24"/>
<path d="M56.3087 85.8885L56.5559 62.1139L40.58 58.8424L54.7808 63.3912L56.3087 85.8885Z" fill="#1B2D4E"/>
<path d="M22.9639 54.7194L9.81919 52.5683L8.42608 72.9817C8.42608 72.9817 8.31373 72.8248 8.26879 72.7352L8.0441 51.2911L22.9864 54.7194H22.9639Z" fill="#1B2D4E"/>
<path d="M83.0475 54.1368L89.5862 51.7392L89.2266 63.1895L88.6874 53.2405L83.0475 54.1368Z" fill="#1B2D4E"/>
<path d="M13.8188 69.5757C14.021 69.3516 14.2232 69.3292 14.4704 69.5309C15.1445 70.0238 15.7961 70.5392 16.4927 71.0098C18.807 72.6007 21.2562 73.9004 23.8402 74.9535C25.2109 75.5137 26.604 76.0067 28.0196 76.41C29.1206 76.7013 30.244 76.9702 31.3675 77.2167C32.1315 77.3735 32.9179 77.508 33.6819 77.62C35.0076 77.7993 36.3333 77.9113 37.659 77.9561C41.5462 78.0906 45.3885 77.6648 49.1634 76.6789C49.3656 76.6341 49.5679 76.6117 49.7701 76.7237C50.1521 76.903 50.2195 77.3511 49.9274 77.6424C49.8375 77.7097 49.7476 77.7769 49.6578 77.8217C47.5681 78.9421 45.3211 79.6591 42.9843 80.1297C40.962 80.533 38.8948 80.7347 36.8276 80.7347C35.1649 80.7347 33.5021 80.6002 31.8843 80.3313C28.4015 79.7263 25.121 78.5835 22.0427 76.8582C18.9643 75.1104 16.2904 72.892 14.021 70.2031C13.9311 70.0911 13.8637 69.9566 13.7963 69.8446C13.7963 69.7773 13.7963 69.7101 13.8188 69.6205V69.5757Z" fill="#F36B24"/>
<path d="M50.8486 78.83C52.4619 78.83 53.7697 77.5258 53.7697 75.917C53.7697 74.3082 52.4619 73.0041 50.8486 73.0041C49.2354 73.0041 47.9276 74.3082 47.9276 75.917C47.9276 77.5258 49.2354 78.83 50.8486 78.83Z" fill="#F36B24"/>
<path d="M13.0773 71.077C14.6905 71.077 15.9983 69.7728 15.9983 68.164C15.9983 66.5552 14.6905 65.251 13.0773 65.251C11.464 65.251 10.1562 66.5552 10.1562 68.164C10.1562 69.7728 11.464 71.077 13.0773 71.077Z" fill="#F36B24"/>
</svg>
